<?xml version="1.0" standalone="no"?>
<!DOCTYPE svg PUBLIC "-//W3C//DTD SVG 1.1//EN" "http://www.w3.org/Graphics/SVG/1.1/DTD/svg11.dtd">
<svg width="100%" height="100%" viewBox="0 0 800 200" version="1.1" xmlns="http://www.w3.org/2000/svg" xmlns:xlink="http://www.w3.org/1999/xlink" xml:space="preserve" style="fill-rule:evenodd;clip-rule:evenodd;stroke-linejoin:round;stroke-miterlimit:1.41421;">
    <g transform="matrix(4.00031,0,0,4.30295,-534.854,-118.292)">
        <path d="M193.238,43.745L204.038,43.745L204.038,53.445L193.288,53.445L193.288,65.445L181.588,65.445L181.588,30.045L205.488,30.045L205.488,39.995L193.238,39.995L193.238,43.745Z" style="fill:black;fill-rule:nonzero;"/>
        <path d="M204.938,59.795C204.938,58.895 205.113,58.054 205.463,57.27C205.813,56.487 206.297,55.804 206.913,55.22C207.53,54.637 208.247,54.17 209.063,53.82C209.88,53.47 210.738,53.295 211.638,53.295C212.505,53.295 213.33,53.47 214.113,53.82C214.897,54.17 215.588,54.637 216.188,55.22C216.788,55.804 217.263,56.487 217.613,57.27C217.963,58.054 218.138,58.895 218.138,59.795C218.138,60.695 217.963,61.545 217.613,62.345C217.263,63.145 216.788,63.829 216.188,64.395C215.588,64.962 214.897,65.412 214.113,65.745C213.33,66.079 212.505,66.245 211.638,66.245C210.738,66.245 209.88,66.079 209.063,65.745C208.247,65.412 207.53,64.962 206.913,64.395C206.297,63.829 205.813,63.145 205.463,62.345C205.113,61.545 204.938,60.695 204.938,59.795Z" style="fill:black;fill-rule:nonzero;"/>
        <path d="M223.838,65.445L223.838,30.045L237.038,30.045C239.838,30.045 242.513,30.32 245.063,30.87C247.613,31.42 249.863,32.37 251.813,33.72C253.763,35.07 255.322,36.862 256.488,39.095C257.655,41.329 258.238,44.145 258.238,47.545C258.238,50.645 257.68,53.329 256.563,55.595C255.447,57.862 253.955,59.72 252.088,61.17C250.222,62.62 248.072,63.695 245.638,64.395C243.205,65.095 240.672,65.445 238.038,65.445L223.838,65.445ZM235.288,40.145L235.288,55.245L237.488,55.245C240.288,55.245 242.438,54.637 243.938,53.42C245.438,52.204 246.188,50.212 246.188,47.445C246.188,45.145 245.438,43.354 243.938,42.07C242.438,40.787 240.438,40.145 237.938,40.145L235.288,40.145Z" style="fill:black;fill-rule:nonzero;"/>
        <path d="M259.938,59.795C259.938,58.895 260.113,58.054 260.463,57.27C260.813,56.487 261.297,55.804 261.913,55.22C262.53,54.637 263.247,54.17 264.063,53.82C264.88,53.47 265.738,53.295 266.638,53.295C267.505,53.295 268.33,53.47 269.113,53.82C269.897,54.17 270.588,54.637 271.188,55.22C271.788,55.804 272.263,56.487 272.613,57.27C272.963,58.054 273.138,58.895 273.138,59.795C273.138,60.695 272.963,61.545 272.613,62.345C272.263,63.145 271.788,63.829 271.188,64.395C270.588,64.962 269.897,65.412 269.113,65.745C268.33,66.079 267.505,66.245 266.638,66.245C265.738,66.245 264.88,66.079 264.063,65.745C263.247,65.412 262.53,64.962 261.913,64.395C261.297,63.829 260.813,63.145 260.463,62.345C260.113,61.545 259.938,60.695 259.938,59.795Z" style="fill:black;fill-rule:nonzero;"/>
        <path d="M278.838,30.045L303.188,30.045L303.188,39.945L290.038,39.945L290.038,42.995L302.388,42.995L302.388,52.245L290.038,52.245L290.038,55.545L304.038,55.545L304.038,65.445L278.838,65.445L278.838,30.045Z" style="fill:black;fill-rule:nonzero;"/>
    </g>
    <g transform="matrix(1,0,0,1,77.1641,2.90941)">
        <path d="M220.994,189.574L219.494,189.574L219.494,176.158L214.556,176.158L214.556,174.824L225.931,174.824L225.931,176.158L220.994,176.158L220.994,189.574Z" style="fill:black;fill-rule:nonzero;"/>
        <path d="M229.181,181.428C229.445,180.859 229.883,180.408 230.494,180.074C231.105,179.741 231.758,179.574 232.452,179.574C233.688,179.574 234.615,179.942 235.233,180.678C235.852,181.415 236.161,182.387 236.161,183.595L236.161,189.574L234.744,189.574L234.744,184.178C234.744,183.665 234.702,183.199 234.619,182.783C234.536,182.366 234.393,182.008 234.192,181.71C233.99,181.411 233.72,181.178 233.379,181.012C233.039,180.845 232.612,180.762 232.098,180.762C231.723,180.762 231.358,180.838 231.004,180.991C230.65,181.144 230.334,181.376 230.056,181.689C229.779,182.001 229.556,182.397 229.39,182.876C229.223,183.356 229.14,183.921 229.14,184.574L229.14,189.574L227.723,189.574L227.723,173.824L229.14,173.824L229.14,181.428L229.181,181.428Z" style="fill:black;fill-rule:nonzero;"/>
        <path d="M247.265,183.949C247.223,183.033 246.928,182.272 246.379,181.668C245.831,181.064 245.049,180.762 244.036,180.762C243.563,180.762 243.126,180.849 242.723,181.022C242.32,181.196 241.966,181.432 241.661,181.731C241.355,182.029 241.112,182.369 240.931,182.751C240.751,183.133 240.647,183.533 240.619,183.949L247.265,183.949ZM248.702,184.408C248.702,184.505 248.702,184.609 248.702,184.72C248.702,184.831 248.695,184.949 248.681,185.074L240.598,185.074C240.612,185.56 240.709,186.019 240.89,186.449C241.07,186.88 241.32,187.255 241.64,187.574C241.959,187.894 242.334,188.147 242.765,188.335C243.195,188.522 243.661,188.616 244.161,188.616C244.897,188.616 245.532,188.446 246.067,188.106C246.602,187.765 247.008,187.373 247.286,186.928L248.348,187.762C247.765,188.498 247.122,189.026 246.421,189.345C245.72,189.665 244.966,189.824 244.161,189.824C243.438,189.824 242.768,189.696 242.15,189.439C241.532,189.182 241.001,188.824 240.556,188.366C240.112,187.908 239.761,187.366 239.504,186.741C239.247,186.116 239.119,185.435 239.119,184.699C239.119,183.963 239.244,183.283 239.494,182.658C239.744,182.033 240.091,181.491 240.536,181.033C240.98,180.574 241.501,180.217 242.098,179.96C242.695,179.703 243.341,179.574 244.036,179.574C244.799,179.574 245.473,179.703 246.056,179.96C246.64,180.217 247.126,180.564 247.515,181.001C247.904,181.439 248.199,181.949 248.4,182.533C248.602,183.116 248.702,183.741 248.702,184.408Z" style="fill:black;fill-rule:nonzero;"/>
        <path d="M258.536,189.574L257.036,189.574L257.036,174.824L265.931,174.824L265.931,176.158L258.536,176.158L258.536,181.283L265.411,181.283L265.411,182.595L258.536,182.595L258.536,189.574Z" style="fill:black;fill-rule:nonzero;"/>
        <path d="M274.869,189.574C274.841,189.31 274.82,189.019 274.806,188.699C274.792,188.38 274.786,188.116 274.786,187.908L274.744,187.908C274.466,188.477 274.015,188.939 273.39,189.293C272.765,189.647 272.105,189.824 271.411,189.824C270.174,189.824 269.247,189.456 268.629,188.72C268.011,187.984 267.702,187.012 267.702,185.803L267.702,179.824L269.119,179.824L269.119,185.22C269.119,185.734 269.161,186.199 269.244,186.616C269.327,187.033 269.47,187.39 269.671,187.689C269.872,187.987 270.143,188.22 270.483,188.387C270.824,188.553 271.251,188.637 271.765,188.637C272.14,188.637 272.504,188.56 272.858,188.408C273.213,188.255 273.529,188.022 273.806,187.71C274.084,187.397 274.306,187.001 274.473,186.522C274.64,186.043 274.723,185.477 274.723,184.824L274.723,179.824L276.14,179.824L276.14,187.428C276.14,187.692 276.147,188.033 276.161,188.449C276.174,188.866 276.195,189.241 276.223,189.574L274.869,189.574Z" style="fill:black;fill-rule:nonzero;"/>
        <rect x="279.931" y="173.824" width="1.417" height="15.75" style="fill:black;fill-rule:nonzero;"/>
        <rect x="285.181" y="173.824" width="1.417" height="15.75" style="fill:black;fill-rule:nonzero;"/>
        <path d="M295.681,174.824L300.577,174.824C301.494,174.824 302.414,174.977 303.338,175.283C304.261,175.588 305.095,176.05 305.838,176.668C306.581,177.286 307.181,178.057 307.64,178.981C308.098,179.904 308.327,180.977 308.327,182.199C308.327,183.435 308.098,184.512 307.64,185.428C307.181,186.345 306.581,187.112 305.838,187.731C305.095,188.349 304.261,188.81 303.338,189.116C302.414,189.421 301.494,189.574 300.577,189.574L295.681,189.574L295.681,174.824ZM297.181,188.241L300.161,188.241C301.272,188.241 302.24,188.067 303.067,187.72C303.893,187.373 304.577,186.918 305.119,186.356C305.661,185.793 306.067,185.151 306.338,184.428C306.608,183.706 306.744,182.963 306.744,182.199C306.744,181.435 306.608,180.692 306.338,179.97C306.067,179.248 305.661,178.606 305.119,178.043C304.577,177.481 303.893,177.026 303.067,176.678C302.24,176.331 301.272,176.158 300.161,176.158L297.181,176.158L297.181,188.241Z" style="fill:black;fill-rule:nonzero;"/>
        <path d="M317.515,183.283C317.515,182.435 317.292,181.803 316.848,181.387C316.404,180.97 315.758,180.762 314.911,180.762C314.327,180.762 313.786,180.866 313.286,181.074C312.786,181.283 312.362,181.56 312.015,181.908L311.223,180.97C311.626,180.567 312.157,180.234 312.817,179.97C313.477,179.706 314.223,179.574 315.056,179.574C315.584,179.574 316.077,179.647 316.536,179.793C316.994,179.939 317.397,180.158 317.744,180.449C318.091,180.741 318.362,181.109 318.556,181.553C318.751,181.998 318.848,182.519 318.848,183.116L318.848,187.387C318.848,187.762 318.862,188.151 318.89,188.553C318.917,188.956 318.959,189.296 319.015,189.574L317.744,189.574C317.702,189.338 317.667,189.081 317.64,188.803C317.612,188.526 317.598,188.255 317.598,187.991L317.556,187.991C317.112,188.644 316.608,189.112 316.046,189.397C315.483,189.682 314.806,189.824 314.015,189.824C313.64,189.824 313.254,189.772 312.858,189.668C312.463,189.564 312.102,189.394 311.775,189.158C311.449,188.921 311.178,188.616 310.963,188.241C310.747,187.866 310.64,187.408 310.64,186.866C310.64,186.116 310.831,185.522 311.213,185.085C311.595,184.647 312.105,184.321 312.744,184.106C313.383,183.89 314.115,183.751 314.942,183.689C315.768,183.626 316.626,183.595 317.515,183.595L317.515,183.283ZM317.098,184.699C316.515,184.699 315.928,184.724 315.338,184.772C314.747,184.821 314.213,184.918 313.733,185.064C313.254,185.21 312.862,185.421 312.556,185.699C312.251,185.977 312.098,186.345 312.098,186.803C312.098,187.151 312.164,187.442 312.296,187.678C312.428,187.915 312.605,188.106 312.827,188.251C313.049,188.397 313.296,188.501 313.567,188.564C313.838,188.626 314.112,188.658 314.39,188.658C314.89,188.658 315.334,188.571 315.723,188.397C316.112,188.224 316.438,187.987 316.702,187.689C316.966,187.39 317.167,187.046 317.306,186.658C317.445,186.269 317.515,185.859 317.515,185.428L317.515,184.699L317.098,184.699Z" style="fill:black;fill-rule:nonzero;"/>
        <path d="M326.494,189.574L324.931,189.574L320.952,179.824L322.536,179.824L325.702,188.074L325.744,188.074L328.931,179.824L330.452,179.824L326.494,189.574Z" style="fill:black;fill-rule:nonzero;"/>
        <path d="M334.098,189.574L332.681,189.574L332.681,179.824L334.098,179.824L334.098,189.574ZM334.39,176.074C334.39,176.366 334.286,176.606 334.077,176.793C333.869,176.981 333.64,177.074 333.39,177.074C333.14,177.074 332.911,176.981 332.702,176.793C332.494,176.606 332.39,176.366 332.39,176.074C332.39,175.783 332.494,175.543 332.702,175.356C332.911,175.168 333.14,175.074 333.39,175.074C333.64,175.074 333.869,175.168 334.077,175.356C334.286,175.543 334.39,175.783 334.39,176.074Z" style="fill:black;fill-rule:nonzero;"/>
        <path d="M345.89,187.928C345.473,188.553 344.931,189.026 344.265,189.345C343.598,189.665 342.911,189.824 342.202,189.824C341.438,189.824 340.747,189.692 340.129,189.428C339.511,189.165 338.983,188.803 338.546,188.345C338.108,187.887 337.768,187.345 337.525,186.72C337.282,186.095 337.161,185.421 337.161,184.699C337.161,183.977 337.282,183.303 337.525,182.678C337.768,182.053 338.108,181.512 338.546,181.053C338.983,180.595 339.511,180.234 340.129,179.97C340.747,179.706 341.438,179.574 342.202,179.574C342.911,179.574 343.598,179.737 344.265,180.064C344.931,180.39 345.473,180.873 345.89,181.512L345.931,181.512L345.931,173.824L347.348,173.824L347.348,189.574L345.931,189.574L345.931,187.928L345.89,187.928ZM338.661,184.699C338.661,185.241 338.744,185.751 338.911,186.231C339.077,186.71 339.317,187.126 339.629,187.481C339.942,187.835 340.327,188.112 340.786,188.314C341.244,188.515 341.765,188.616 342.348,188.616C342.89,188.616 343.39,188.515 343.848,188.314C344.306,188.112 344.702,187.838 345.036,187.491C345.369,187.144 345.629,186.731 345.817,186.251C346.004,185.772 346.098,185.255 346.098,184.699C346.098,184.144 346.004,183.626 345.817,183.147C345.629,182.668 345.369,182.251 345.036,181.897C344.702,181.543 344.306,181.265 343.848,181.064C343.39,180.862 342.89,180.762 342.348,180.762C341.765,180.762 341.244,180.866 340.786,181.074C340.327,181.283 339.942,181.564 339.629,181.918C339.317,182.272 339.077,182.689 338.911,183.168C338.744,183.647 338.661,184.158 338.661,184.699Z" style="fill:black;fill-rule:nonzero;"/>
        <path d="M357.931,188.241L365.827,188.241L365.827,189.574L356.431,189.574L356.431,174.824L365.577,174.824L365.577,176.158L357.931,176.158L357.931,181.241L365.077,181.241L365.077,182.553L357.931,182.553L357.931,188.241Z" style="fill:black;fill-rule:nonzero;"/>
        <path d="M370.973,184.533L367.369,179.824L369.181,179.824L371.848,183.533L374.515,179.824L376.223,179.824L372.681,184.47L376.556,189.574L374.723,189.574L371.827,185.512L368.848,189.574L367.14,189.574L370.973,184.533Z" style="fill:black;fill-rule:nonzero;"/>
        <path d="M380.181,194.574L378.765,194.574L378.765,179.824L380.181,179.824L380.181,181.512L380.244,181.512C380.647,180.873 381.185,180.39 381.858,180.064C382.532,179.737 383.216,179.574 383.911,179.574C384.674,179.574 385.365,179.706 385.983,179.97C386.602,180.234 387.129,180.595 387.567,181.053C388.004,181.512 388.345,182.053 388.588,182.678C388.831,183.303 388.952,183.977 388.952,184.699C388.952,185.421 388.831,186.095 388.588,186.72C388.345,187.345 388.004,187.887 387.567,188.345C387.129,188.803 386.602,189.165 385.983,189.428C385.365,189.692 384.674,189.824 383.911,189.824C383.216,189.824 382.532,189.661 381.858,189.335C381.185,189.008 380.647,188.54 380.244,187.928L380.181,187.928L380.181,194.574ZM387.452,184.699C387.452,184.158 387.369,183.647 387.202,183.168C387.036,182.689 386.796,182.272 386.483,181.918C386.171,181.564 385.786,181.283 385.327,181.074C384.869,180.866 384.348,180.762 383.765,180.762C383.223,180.762 382.723,180.862 382.265,181.064C381.806,181.265 381.411,181.543 381.077,181.897C380.744,182.251 380.483,182.668 380.296,183.147C380.108,183.626 380.015,184.144 380.015,184.699C380.015,185.255 380.108,185.772 380.296,186.251C380.483,186.731 380.744,187.144 381.077,187.491C381.411,187.838 381.806,188.112 382.265,188.314C382.723,188.515 383.223,188.616 383.765,188.616C384.348,188.616 384.869,188.515 385.327,188.314C385.786,188.112 386.171,187.835 386.483,187.481C386.796,187.126 387.036,186.71 387.202,186.231C387.369,185.751 387.452,185.241 387.452,184.699Z" style="fill:black;fill-rule:nonzero;"/>
        <path d="M399.431,183.949C399.39,183.033 399.095,182.272 398.546,181.668C397.997,181.064 397.216,180.762 396.202,180.762C395.73,180.762 395.292,180.849 394.89,181.022C394.487,181.196 394.133,181.432 393.827,181.731C393.522,182.029 393.279,182.369 393.098,182.751C392.917,183.133 392.813,183.533 392.786,183.949L399.431,183.949ZM400.869,184.408C400.869,184.505 400.869,184.609 400.869,184.72C400.869,184.831 400.862,184.949 400.848,185.074L392.765,185.074C392.779,185.56 392.876,186.019 393.056,186.449C393.237,186.88 393.487,187.255 393.806,187.574C394.126,187.894 394.501,188.147 394.931,188.335C395.362,188.522 395.827,188.616 396.327,188.616C397.063,188.616 397.699,188.446 398.233,188.106C398.768,187.765 399.174,187.373 399.452,186.928L400.515,187.762C399.931,188.498 399.289,189.026 398.588,189.345C397.886,189.665 397.133,189.824 396.327,189.824C395.605,189.824 394.935,189.696 394.317,189.439C393.699,189.182 393.167,188.824 392.723,188.366C392.279,187.908 391.928,187.366 391.671,186.741C391.414,186.116 391.286,185.435 391.286,184.699C391.286,183.963 391.411,183.283 391.661,182.658C391.911,182.033 392.258,181.491 392.702,181.033C393.147,180.574 393.667,180.217 394.265,179.96C394.862,179.703 395.508,179.574 396.202,179.574C396.966,179.574 397.64,179.703 398.223,179.96C398.806,180.217 399.292,180.564 399.681,181.001C400.07,181.439 400.365,181.949 400.567,182.533C400.768,183.116 400.869,183.741 400.869,184.408Z" style="fill:black;fill-rule:nonzero;"/>
        <path d="M403.911,181.97C403.911,181.706 403.904,181.366 403.89,180.949C403.876,180.533 403.855,180.158 403.827,179.824L405.181,179.824C405.209,180.088 405.23,180.38 405.244,180.699C405.258,181.019 405.265,181.283 405.265,181.491L405.306,181.491C405.584,180.921 406.001,180.46 406.556,180.106C407.112,179.751 407.737,179.574 408.431,179.574C408.612,179.574 408.775,179.581 408.921,179.595C409.067,179.609 409.216,179.637 409.369,179.678L409.181,181.012C409.098,180.984 408.959,180.956 408.765,180.928C408.57,180.901 408.376,180.887 408.181,180.887C407.806,180.887 407.445,180.956 407.098,181.095C406.751,181.234 406.449,181.453 406.192,181.751C405.935,182.05 405.727,182.432 405.567,182.897C405.407,183.362 405.327,183.921 405.327,184.574L405.327,189.574L403.911,189.574L403.911,181.97Z" style="fill:black;fill-rule:nonzero;"/>
        <path d="M412.848,189.574L411.431,189.574L411.431,179.824L412.848,179.824L412.848,189.574ZM413.14,176.074C413.14,176.366 413.036,176.606 412.827,176.793C412.619,176.981 412.39,177.074 412.14,177.074C411.89,177.074 411.661,176.981 411.452,176.793C411.244,176.606 411.14,176.366 411.14,176.074C411.14,175.783 411.244,175.543 411.452,175.356C411.661,175.168 411.89,175.074 412.14,175.074C412.39,175.074 412.619,175.168 412.827,175.356C413.036,175.543 413.14,175.783 413.14,176.074Z" style="fill:black;fill-rule:nonzero;"/>
        <path d="M424.056,183.949C424.015,183.033 423.72,182.272 423.171,181.668C422.622,181.064 421.841,180.762 420.827,180.762C420.355,180.762 419.917,180.849 419.515,181.022C419.112,181.196 418.758,181.432 418.452,181.731C418.147,182.029 417.904,182.369 417.723,182.751C417.542,183.133 417.438,183.533 417.411,183.949L424.056,183.949ZM425.494,184.408C425.494,184.505 425.494,184.609 425.494,184.72C425.494,184.831 425.487,184.949 425.473,185.074L417.39,185.074C417.404,185.56 417.501,186.019 417.681,186.449C417.862,186.88 418.112,187.255 418.431,187.574C418.751,187.894 419.126,188.147 419.556,188.335C419.987,188.522 420.452,188.616 420.952,188.616C421.688,188.616 422.324,188.446 422.858,188.106C423.393,187.765 423.799,187.373 424.077,186.928L425.14,187.762C424.556,188.498 423.914,189.026 423.213,189.345C422.511,189.665 421.758,189.824 420.952,189.824C420.23,189.824 419.56,189.696 418.942,189.439C418.324,189.182 417.792,188.824 417.348,188.366C416.904,187.908 416.553,187.366 416.296,186.741C416.039,186.116 415.911,185.435 415.911,184.699C415.911,183.963 416.036,183.283 416.286,182.658C416.536,182.033 416.883,181.491 417.327,181.033C417.772,180.574 418.292,180.217 418.89,179.96C419.487,179.703 420.133,179.574 420.827,179.574C421.591,179.574 422.265,179.703 422.848,179.96C423.431,180.217 423.917,180.564 424.306,181.001C424.695,181.439 424.99,181.949 425.192,182.533C425.393,183.116 425.494,183.741 425.494,184.408Z" style="fill:black;fill-rule:nonzero;"/>
        <path d="M429.806,179.824C429.834,180.088 429.855,180.38 429.869,180.699C429.883,181.019 429.89,181.283 429.89,181.491L429.931,181.491C430.209,180.921 430.661,180.46 431.286,180.106C431.911,179.751 432.57,179.574 433.265,179.574C434.501,179.574 435.428,179.942 436.046,180.678C436.664,181.415 436.973,182.387 436.973,183.595L436.973,189.574L435.556,189.574L435.556,184.178C435.556,183.665 435.515,183.199 435.431,182.783C435.348,182.366 435.206,182.008 435.004,181.71C434.803,181.411 434.532,181.178 434.192,181.012C433.852,180.845 433.424,180.762 432.911,180.762C432.536,180.762 432.171,180.838 431.817,180.991C431.463,181.144 431.147,181.376 430.869,181.689C430.591,182.001 430.369,182.397 430.202,182.876C430.036,183.356 429.952,183.921 429.952,184.574L429.952,189.574L428.536,189.574L428.536,181.97C428.536,181.706 428.529,181.366 428.515,180.949C428.501,180.533 428.48,180.158 428.452,179.824L429.806,179.824Z" style="fill:black;fill-rule:nonzero;"/>
        <path d="M447.661,182.053C447.424,181.678 447.081,181.369 446.629,181.126C446.178,180.883 445.688,180.762 445.161,180.762C444.591,180.762 444.077,180.862 443.619,181.064C443.161,181.265 442.768,181.543 442.442,181.897C442.115,182.251 441.865,182.668 441.692,183.147C441.518,183.626 441.431,184.144 441.431,184.699C441.431,185.255 441.518,185.769 441.692,186.241C441.865,186.713 442.112,187.126 442.431,187.481C442.751,187.835 443.14,188.112 443.598,188.314C444.056,188.515 444.57,188.616 445.14,188.616C445.765,188.616 446.292,188.498 446.723,188.262C447.154,188.026 447.508,187.72 447.786,187.345L448.848,188.137C448.431,188.651 447.921,189.06 447.317,189.366C446.713,189.671 445.987,189.824 445.14,189.824C444.348,189.824 443.633,189.696 442.994,189.439C442.355,189.182 441.81,188.824 441.358,188.366C440.907,187.908 440.556,187.366 440.306,186.741C440.056,186.116 439.931,185.435 439.931,184.699C439.931,183.963 440.056,183.283 440.306,182.658C440.556,182.033 440.907,181.491 441.358,181.033C441.81,180.574 442.355,180.217 442.994,179.96C443.633,179.703 444.348,179.574 445.14,179.574C445.792,179.574 446.456,179.717 447.129,180.001C447.803,180.286 448.348,180.706 448.765,181.262L447.661,182.053Z" style="fill:black;fill-rule:nonzero;"/>
        <path d="M458.494,183.949C458.452,183.033 458.157,182.272 457.608,181.668C457.06,181.064 456.279,180.762 455.265,180.762C454.792,180.762 454.355,180.849 453.952,181.022C453.549,181.196 453.195,181.432 452.89,181.731C452.584,182.029 452.341,182.369 452.161,182.751C451.98,183.133 451.876,183.533 451.848,183.949L458.494,183.949ZM459.931,184.408C459.931,184.505 459.931,184.609 459.931,184.72C459.931,184.831 459.924,184.949 459.911,185.074L451.827,185.074C451.841,185.56 451.938,186.019 452.119,186.449C452.299,186.88 452.549,187.255 452.869,187.574C453.188,187.894 453.563,188.147 453.994,188.335C454.424,188.522 454.89,188.616 455.39,188.616C456.126,188.616 456.761,188.446 457.296,188.106C457.831,187.765 458.237,187.373 458.515,186.928L459.577,187.762C458.994,188.498 458.352,189.026 457.65,189.345C456.949,189.665 456.195,189.824 455.39,189.824C454.667,189.824 453.997,189.696 453.379,189.439C452.761,189.182 452.23,188.824 451.786,188.366C451.341,187.908 450.99,187.366 450.733,186.741C450.477,186.116 450.348,185.435 450.348,184.699C450.348,183.963 450.473,183.283 450.723,182.658C450.973,182.033 451.32,181.491 451.765,181.033C452.209,180.574 452.73,180.217 453.327,179.96C453.924,179.703 454.57,179.574 455.265,179.574C456.029,179.574 456.702,179.703 457.286,179.96C457.869,180.217 458.355,180.564 458.744,181.001C459.133,181.439 459.428,181.949 459.629,182.533C459.831,183.116 459.931,183.741 459.931,184.408Z" style="fill:black;fill-rule:nonzero;"/>
    </g>
</svg>
